<svg width="290" height="130" viewBox="0 0 290 130" fill="none" xmlns="http://www.w3.org/2000/svg">
<g filter="url(#filter0_d_854_776)">
<path d="M46.3152 25.9076C46.3094 23.5892 45.5076 21.3423 44.0425 19.5396C43.3193 18.5926 42.4007 17.8106 41.3485 17.2461C40.2963 16.6817 39.1348 16.3479 37.9422 16.2672H28.3731C27.0403 16.2236 25.7197 16.5318 24.5454 17.1605C23.5279 17.7381 22.6499 18.5305 21.9731 19.4819C21.2701 20.4901 20.7632 21.6205 20.4785 22.8144C20.1577 24.0991 19.997 25.4182 20.0001 26.7419V95.2939C19.9967 96.5357 20.1369 97.7736 20.4181 98.9834C20.678 100.128 21.1442 101.217 21.7943 102.197C22.4572 103.174 23.3142 104.005 24.3125 104.64C25.4239 105.336 26.7016 105.725 28.0142 105.767H38.6662C39.8226 105.746 40.955 105.435 41.9585 104.863C42.9621 104.29 43.8044 103.476 44.4076 102.494C45.6693 100.52 46.3336 98.2268 46.3215 95.8878L46.3152 25.9076ZM25.9808 92.7946V29.121C25.91 27.5383 26.239 25.9631 26.9377 24.5395C27.1326 24.0568 27.4606 23.6387 27.8838 23.3333C28.307 23.0279 28.8083 22.8476 29.33 22.8131H36.746C37.3426 22.7333 37.9491 22.8463 38.4761 23.1355C39.0032 23.4246 39.4229 23.8747 39.6734 24.4192C40.1849 25.9731 40.4076 27.6067 40.3307 29.24V92.7946C40.4074 94.4275 40.1847 96.0606 39.6734 97.6141C39.423 98.1596 39.0027 98.6104 38.4748 98.8998C37.947 99.1893 37.3395 99.3021 36.7423 99.2215H30.7616C28.6882 99.2215 27.3725 98.6661 26.8143 97.5552C26.1819 96.0504 25.8971 94.4235 25.9808 92.7946ZM93.5628 16.2672L82.4387 87.5579L72.2715 16.2672H65.4534L78.7306 105.767H86.0271L95.8292 41.7367L104.926 105.767H112.103L126.457 16.2672H119.639L108.515 87.5579L98.3474 16.2672H93.5628ZM151.456 52.8052C151.43 53.7307 151.551 54.6545 151.815 55.5426C152.054 56.2567 152.894 56.6137 154.333 56.6137H164.74C165.447 56.6509 166.139 56.833 166.773 57.1486C167.626 57.5421 168.413 58.0639 169.106 58.6959C169.871 59.3794 170.518 60.1836 171.02 61.0762C171.532 61.9632 171.8 62.9686 171.798 63.9914V95.2939C171.838 97.7673 171.174 100.201 169.884 102.316C169.177 103.378 168.216 104.249 167.087 104.851C165.959 105.453 164.698 105.768 163.417 105.767H153.729C152.547 105.673 151.399 105.332 150.358 104.768C149.317 104.204 148.406 103.43 147.685 102.494C146.187 100.704 145.363 98.4501 145.356 96.1208V75.65H151.336V92.9136C151.249 94.5325 151.493 96.1521 152.054 97.6743C152.334 98.2053 152.771 98.6382 153.305 98.9149C153.84 99.1915 154.447 99.2985 155.044 99.2215H162.461C163.028 99.2568 163.591 99.108 164.065 98.7973C164.54 98.4866 164.9 98.0309 165.092 97.4989C165.624 96.0314 165.867 94.4762 165.81 92.9174V66.8491C165.892 65.8547 165.616 64.8636 165.032 64.0528C164.592 63.6977 164.084 63.4354 163.539 63.2818C162.994 63.1283 162.423 63.0867 161.861 63.1596H152.891C152.035 63.1509 151.186 63.0101 150.373 62.7424C149.498 62.4655 148.685 62.0208 147.981 61.4332C147.217 60.7779 146.605 59.9659 146.187 59.0529C145.685 57.9522 145.44 56.7532 145.469 55.5451V26.7407C145.428 24.2752 146.069 21.846 147.322 19.7187C148.013 18.6557 148.961 17.7825 150.079 17.1794C151.198 16.5763 152.45 16.2626 153.722 16.2672H163.411C164.604 16.3479 165.765 16.6817 166.817 17.2461C167.87 17.8106 168.788 18.5926 169.511 19.5396C170.977 21.3423 171.778 23.5892 171.784 25.9076V46.3783H165.803V29.24C165.88 27.6066 165.657 25.973 165.145 24.4192C164.895 23.874 164.474 23.4234 163.947 23.1339C163.419 22.8445 162.812 22.7316 162.215 22.8119H154.799C154.221 22.7597 153.642 22.9013 153.155 23.2141C152.667 23.5269 152.299 23.993 152.108 24.5382C151.62 26.015 151.397 27.566 151.451 29.1197L151.456 52.8052ZM190.809 105.767H217.363V99.2215H196.909V16.2672H190.809V105.767ZM263.541 105.767H270L256.364 16.2672H249.426L236.262 105.767H242.841L252.889 34.5957L263.541 105.767Z" fill="#000000"/>
</g>
<defs>
<filter id="filter0_d_854_776" x="0" y="0.263184" width="290" height="129.504" filterUnits="userSpaceOnUse" color-interpolation-filters="sRGB">
<feFlood flood-opacity="0" result="BackgroundImageFix"/>
<feColorMatrix in="SourceAlpha" type="matrix" values="0 0 0 0 0 0 0 0 0 0 0 0 0 0 0 0 0 0 127 0" result="hardAlpha"/>
<feOffset dy="4"/>
<feGaussianBlur stdDeviation="10"/>
<feComposite in2="hardAlpha" operator="out"/>
<feColorMatrix type="matrix" values="0 0 0 0 0.545833 0 0 0 0 0.545833 0 0 0 0 0.545833 0 0 0 0.25 0"/>
<feBlend mode="normal" in2="BackgroundImageFix" result="effect1_dropShadow_854_776"/>
<feBlend mode="normal" in="SourceGraphic" in2="effect1_dropShadow_854_776" result="shape"/>
</filter>
</defs>
</svg>
