<svg width="88" height="112" viewBox="0 0 88 112" fill="none" xmlns="http://www.w3.org/2000/svg">
<mask id="path-1-outside-1_1_129" maskUnits="userSpaceOnUse" x="0.5" y="0" width="87" height="112" fill="black">
<rect fill="white" x="0.5" width="87" height="112"/>
<path d="M40.3569 1.0739C34.3268 1.59591 28.478 3.40566 23.2039 6.38145C17.9298 9.35725 13.3526 13.4301 9.77996 18.3262C5.84804 23.7232 3.20455 29.9525 2.05302 36.5344C1.61186 38.9173 1.43375 41.3417 1.52191 43.7638C1.43375 46.1858 1.61186 48.6102 2.05302 50.9932C3.22131 57.7553 5.9746 64.143 10.0865 69.6309L10.9613 70.7805L10.9825 90.8903L11.0144 111L17.5547 96.4446C21.161 88.4526 24.1375 81.8565 24.1906 81.8139C24.5247 81.8586 24.845 81.9759 25.1291 82.1576C28.4597 83.7885 31.9785 85.0008 35.6057 85.767C38.3575 86.3506 41.1694 86.5995 43.9806 86.5084C45.6187 86.5548 47.258 86.4939 48.8881 86.3259C53.5553 85.7466 58.0985 84.4153 62.3419 82.3835C62.7938 82.1366 63.2738 81.9454 63.7714 81.8139C63.8139 81.8679 66.7585 88.3994 70.3329 96.3481C73.9073 104.297 76.8626 110.84 76.9051 110.893C76.9475 110.946 77.0014 102.225 77.0014 90.8796V70.7592L77.9832 69.4484C83.4905 62.0213 86.4756 53.0199 86.5 43.7668C86.487 37.7753 85.228 31.8524 82.8032 26.3758C80.3785 20.8992 76.8412 15.9892 72.4172 11.9591C66.0176 6.10236 57.9691 2.36946 49.3722 1.27086C46.3753 0.996081 43.3629 0.930254 40.3569 1.0739ZM46.5451 4.07121C53.8779 4.57043 60.9268 7.10729 66.9012 11.3972C69.0788 12.9642 71.0947 14.7454 72.9187 16.7143L73.9005 17.7788L62.7084 42.6354L51.5163 67.5042H36.4236L25.2498 42.6894C19.104 29.0358 14.0691 17.832 14.0691 17.7887C14.0691 17.7454 14.912 16.8436 15.9469 15.7905C19.1326 12.512 22.8801 9.83355 27.0108 7.88285C33.08 4.92946 39.8136 3.61557 46.5451 4.07121ZM10.9431 54.6345L10.9112 65.5699L10.2071 64.3883C8.65636 61.8423 7.4069 59.124 6.48402 56.2882C4.67172 50.822 4.06604 45.0264 4.70888 39.3025C5.35172 33.5785 7.22773 28.0628 10.2071 23.137L10.9112 21.9554L10.9431 32.8284C10.953 38.801 10.9537 48.6194 10.9431 54.6345ZM78.3284 24.1369C81.041 28.9513 82.7262 34.2779 83.2771 39.7792C83.828 45.2805 83.2327 50.8365 81.5288 56.0951C80.5195 59.1816 79.1439 62.1354 77.4316 64.8931L77.0052 65.5699V21.9561L77.4316 22.6329C77.6767 23.0092 78.0712 23.686 78.3277 24.1376L78.3284 24.1369ZM73.8792 67.5247C73.858 67.546 69.5689 67.546 64.3412 67.5353L54.8457 67.5034L64.3518 46.3733L73.858 25.2431L73.8899 46.3626C73.8997 57.9755 73.8997 67.5042 73.8785 67.5255L73.8792 67.5247ZM23.5532 46.2881C28.7278 57.7824 32.9843 67.2677 33.0169 67.3643C33.07 67.5468 32.5685 67.5574 23.5639 67.5574H14.0577V46.428C14.0577 34.8159 14.0789 25.3306 14.1002 25.3519C14.1214 25.3732 18.3893 34.8046 23.5532 46.2881ZM37.3341 76.9249C38.913 80.4164 40.1718 83.2952 40.1505 83.3271C38.712 83.2102 37.2827 82.9983 35.872 82.6929C32.5891 82.0153 29.413 80.895 26.4304 79.3626C22.6487 77.5159 19.2042 75.0445 16.2413 72.0518L14.7474 70.5805H24.62L34.4889 70.5699L37.3341 76.9249ZM50.0945 70.6619C50.0838 70.7052 48.7712 73.6372 47.1817 77.1614L44.2985 83.5635H43.6475L40.7992 77.2473C39.2416 73.7778 37.929 70.8558 37.8971 70.7486C37.8212 70.5768 38.1528 70.5661 43.9783 70.5661C47.3987 70.5654 50.1188 70.6072 50.0975 70.6627L50.0945 70.6619ZM71.6668 72.0906C65.5871 78.1306 57.7123 82.0253 49.2303 83.1872C48.7613 83.2665 48.287 83.3097 47.8114 83.3164C47.7796 83.2845 49.0383 80.405 50.6066 76.9143L53.4655 70.5653H63.3374L73.2169 70.576L71.6668 72.0906ZM16.5653 76.4847C17.9078 77.6058 19.3072 78.6564 20.7581 79.6325C21.0317 79.7931 21.2889 79.9803 21.5259 80.1914C21.5259 80.2454 15.8286 92.9531 14.2603 96.4013C14.0683 96.8202 14.0577 96.5731 14.0577 85.5085V74.1861L14.8362 74.9275C15.2633 75.335 16.0425 76.0338 16.5653 76.4847ZM73.8899 91.148L73.858 96.8088L70.1114 88.4944L66.3784 80.18L67.7866 79.2128C69.4956 78.0459 71.1184 76.757 72.6425 75.3563L73.8565 74.25L73.8883 79.8766C73.8997 82.9727 73.9005 88.0435 73.8899 91.148Z"/>
</mask>
<path d="M40.3569 1.0739C34.3268 1.59591 28.478 3.40566 23.2039 6.38145C17.9298 9.35725 13.3526 13.4301 9.77996 18.3262C5.84804 23.7232 3.20455 29.9525 2.05302 36.5344C1.61186 38.9173 1.43375 41.3417 1.52191 43.7638C1.43375 46.1858 1.61186 48.6102 2.05302 50.9932C3.22131 57.7553 5.9746 64.143 10.0865 69.6309L10.9613 70.7805L10.9825 90.8903L11.0144 111L17.5547 96.4446C21.161 88.4526 24.1375 81.8565 24.1906 81.8139C24.5247 81.8586 24.845 81.9759 25.1291 82.1576C28.4597 83.7885 31.9785 85.0008 35.6057 85.767C38.3575 86.3506 41.1694 86.5995 43.9806 86.5084C45.6187 86.5548 47.258 86.4939 48.8881 86.3259C53.5553 85.7466 58.0985 84.4153 62.3419 82.3835C62.7938 82.1366 63.2738 81.9454 63.7714 81.8139C63.8139 81.8679 66.7585 88.3994 70.3329 96.3481C73.9073 104.297 76.8626 110.84 76.9051 110.893C76.9475 110.946 77.0014 102.225 77.0014 90.8796V70.7592L77.9832 69.4484C83.4905 62.0213 86.4756 53.0199 86.5 43.7668C86.487 37.7753 85.228 31.8524 82.8032 26.3758C80.3785 20.8992 76.8412 15.9892 72.4172 11.9591C66.0176 6.10236 57.9691 2.36946 49.3722 1.27086C46.3753 0.996081 43.3629 0.930254 40.3569 1.0739ZM46.5451 4.07121C53.8779 4.57043 60.9268 7.10729 66.9012 11.3972C69.0788 12.9642 71.0947 14.7454 72.9187 16.7143L73.9005 17.7788L62.7084 42.6354L51.5163 67.5042H36.4236L25.2498 42.6894C19.104 29.0358 14.0691 17.832 14.0691 17.7887C14.0691 17.7454 14.912 16.8436 15.9469 15.7905C19.1326 12.512 22.8801 9.83355 27.0108 7.88285C33.08 4.92946 39.8136 3.61557 46.5451 4.07121ZM10.9431 54.6345L10.9112 65.5699L10.2071 64.3883C8.65636 61.8423 7.4069 59.124 6.48402 56.2882C4.67172 50.822 4.06604 45.0264 4.70888 39.3025C5.35172 33.5785 7.22773 28.0628 10.2071 23.137L10.9112 21.9554L10.9431 32.8284C10.953 38.801 10.9537 48.6194 10.9431 54.6345ZM78.3284 24.1369C81.041 28.9513 82.7262 34.2779 83.2771 39.7792C83.828 45.2805 83.2327 50.8365 81.5288 56.0951C80.5195 59.1816 79.1439 62.1354 77.4316 64.8931L77.0052 65.5699V21.9561L77.4316 22.6329C77.6767 23.0092 78.0712 23.686 78.3277 24.1376L78.3284 24.1369ZM73.8792 67.5247C73.858 67.546 69.5689 67.546 64.3412 67.5353L54.8457 67.5034L64.3518 46.3733L73.858 25.2431L73.8899 46.3626C73.8997 57.9755 73.8997 67.5042 73.8785 67.5255L73.8792 67.5247ZM23.5532 46.2881C28.7278 57.7824 32.9843 67.2677 33.0169 67.3643C33.07 67.5468 32.5685 67.5574 23.5639 67.5574H14.0577V46.428C14.0577 34.8159 14.0789 25.3306 14.1002 25.3519C14.1214 25.3732 18.3893 34.8046 23.5532 46.2881ZM37.3341 76.9249C38.913 80.4164 40.1718 83.2952 40.1505 83.3271C38.712 83.2102 37.2827 82.9983 35.872 82.6929C32.5891 82.0153 29.413 80.895 26.4304 79.3626C22.6487 77.5159 19.2042 75.0445 16.2413 72.0518L14.7474 70.5805H24.62L34.4889 70.5699L37.3341 76.9249ZM50.0945 70.6619C50.0838 70.7052 48.7712 73.6372 47.1817 77.1614L44.2985 83.5635H43.6475L40.7992 77.2473C39.2416 73.7778 37.929 70.8558 37.8971 70.7486C37.8212 70.5768 38.1528 70.5661 43.9783 70.5661C47.3987 70.5654 50.1188 70.6072 50.0975 70.6627L50.0945 70.6619ZM71.6668 72.0906C65.5871 78.1306 57.7123 82.0253 49.2303 83.1872C48.7613 83.2665 48.287 83.3097 47.8114 83.3164C47.7796 83.2845 49.0383 80.405 50.6066 76.9143L53.4655 70.5653H63.3374L73.2169 70.576L71.6668 72.0906ZM16.5653 76.4847C17.9078 77.6058 19.3072 78.6564 20.7581 79.6325C21.0317 79.7931 21.2889 79.9803 21.5259 80.1914C21.5259 80.2454 15.8286 92.9531 14.2603 96.4013C14.0683 96.8202 14.0577 96.5731 14.0577 85.5085V74.1861L14.8362 74.9275C15.2633 75.335 16.0425 76.0338 16.5653 76.4847ZM73.8899 91.148L73.858 96.8088L70.1114 88.4944L66.3784 80.18L67.7866 79.2128C69.4956 78.0459 71.1184 76.757 72.6425 75.3563L73.8565 74.25L73.8883 79.8766C73.8997 82.9727 73.9005 88.0435 73.8899 91.148Z" fill="white"/>
<path d="M40.3569 1.0739C34.3268 1.59591 28.478 3.40566 23.2039 6.38145C17.9298 9.35725 13.3526 13.4301 9.77996 18.3262C5.84804 23.7232 3.20455 29.9525 2.05302 36.5344C1.61186 38.9173 1.43375 41.3417 1.52191 43.7638C1.43375 46.1858 1.61186 48.6102 2.05302 50.9932C3.22131 57.7553 5.9746 64.143 10.0865 69.6309L10.9613 70.7805L10.9825 90.8903L11.0144 111L17.5547 96.4446C21.161 88.4526 24.1375 81.8565 24.1906 81.8139C24.5247 81.8586 24.845 81.9759 25.1291 82.1576C28.4597 83.7885 31.9785 85.0008 35.6057 85.767C38.3575 86.3506 41.1694 86.5995 43.9806 86.5084C45.6187 86.5548 47.258 86.4939 48.8881 86.3259C53.5553 85.7466 58.0985 84.4153 62.3419 82.3835C62.7938 82.1366 63.2738 81.9454 63.7714 81.8139C63.8139 81.8679 66.7585 88.3994 70.3329 96.3481C73.9073 104.297 76.8626 110.84 76.9051 110.893C76.9475 110.946 77.0014 102.225 77.0014 90.8796V70.7592L77.9832 69.4484C83.4905 62.0213 86.4756 53.0199 86.5 43.7668C86.487 37.7753 85.228 31.8524 82.8032 26.3758C80.3785 20.8992 76.8412 15.9892 72.4172 11.9591C66.0176 6.10236 57.9691 2.36946 49.3722 1.27086C46.3753 0.996081 43.3629 0.930254 40.3569 1.0739ZM46.5451 4.07121C53.8779 4.57043 60.9268 7.10729 66.9012 11.3972C69.0788 12.9642 71.0947 14.7454 72.9187 16.7143L73.9005 17.7788L62.7084 42.6354L51.5163 67.5042H36.4236L25.2498 42.6894C19.104 29.0358 14.0691 17.832 14.0691 17.7887C14.0691 17.7454 14.912 16.8436 15.9469 15.7905C19.1326 12.512 22.8801 9.83355 27.0108 7.88285C33.08 4.92946 39.8136 3.61557 46.5451 4.07121ZM10.9431 54.6345L10.9112 65.5699L10.2071 64.3883C8.65636 61.8423 7.4069 59.124 6.48402 56.2882C4.67172 50.822 4.06604 45.0264 4.70888 39.3025C5.35172 33.5785 7.22773 28.0628 10.2071 23.137L10.9112 21.9554L10.9431 32.8284C10.953 38.801 10.9537 48.6194 10.9431 54.6345ZM78.3284 24.1369C81.041 28.9513 82.7262 34.2779 83.2771 39.7792C83.828 45.2805 83.2327 50.8365 81.5288 56.0951C80.5195 59.1816 79.1439 62.1354 77.4316 64.8931L77.0052 65.5699V21.9561L77.4316 22.6329C77.6767 23.0092 78.0712 23.686 78.3277 24.1376L78.3284 24.1369ZM73.8792 67.5247C73.858 67.546 69.5689 67.546 64.3412 67.5353L54.8457 67.5034L64.3518 46.3733L73.858 25.2431L73.8899 46.3626C73.8997 57.9755 73.8997 67.5042 73.8785 67.5255L73.8792 67.5247ZM23.5532 46.2881C28.7278 57.7824 32.9843 67.2677 33.0169 67.3643C33.07 67.5468 32.5685 67.5574 23.5639 67.5574H14.0577V46.428C14.0577 34.8159 14.0789 25.3306 14.1002 25.3519C14.1214 25.3732 18.3893 34.8046 23.5532 46.2881ZM37.3341 76.9249C38.913 80.4164 40.1718 83.2952 40.1505 83.3271C38.712 83.2102 37.2827 82.9983 35.872 82.6929C32.5891 82.0153 29.413 80.895 26.4304 79.3626C22.6487 77.5159 19.2042 75.0445 16.2413 72.0518L14.7474 70.5805H24.62L34.4889 70.5699L37.3341 76.9249ZM50.0945 70.6619C50.0838 70.7052 48.7712 73.6372 47.1817 77.1614L44.2985 83.5635H43.6475L40.7992 77.2473C39.2416 73.7778 37.929 70.8558 37.8971 70.7486C37.8212 70.5768 38.1528 70.5661 43.9783 70.5661C47.3987 70.5654 50.1188 70.6072 50.0975 70.6627L50.0945 70.6619ZM71.6668 72.0906C65.5871 78.1306 57.7123 82.0253 49.2303 83.1872C48.7613 83.2665 48.287 83.3097 47.8114 83.3164C47.7796 83.2845 49.0383 80.405 50.6066 76.9143L53.4655 70.5653H63.3374L73.2169 70.576L71.6668 72.0906ZM16.5653 76.4847C17.9078 77.6058 19.3072 78.6564 20.7581 79.6325C21.0317 79.7931 21.2889 79.9803 21.5259 80.1914C21.5259 80.2454 15.8286 92.9531 14.2603 96.4013C14.0683 96.8202 14.0577 96.5731 14.0577 85.5085V74.1861L14.8362 74.9275C15.2633 75.335 16.0425 76.0338 16.5653 76.4847ZM73.8899 91.148L73.858 96.8088L70.1114 88.4944L66.3784 80.18L67.7866 79.2128C69.4956 78.0459 71.1184 76.757 72.6425 75.3563L73.8565 74.25L73.8883 79.8766C73.8997 82.9727 73.9005 88.0435 73.8899 91.148Z" stroke="white" stroke-width="2" mask="url(#path-1-outside-1_1_129)"/>
</svg>
