<svg xmlns="http://www.w3.org/2000/svg" width="134" height="164.402" viewBox="0 0 134 164.402"><defs><style>.a{fill:red;}.a,.b{opacity:0.6;}.b{fill:#00f6ff;}.c{fill:#000;}</style></defs><g transform="translate(-383 194.169)"><path class="a" d="M60-1023.535a63.951,63.951,0,0,0-46.057,25.783A65.066,65.066,0,0,0,2.3-970.54a49.09,49.09,0,0,0-.8,10.8,49.09,49.09,0,0,0,.8,10.8,64.612,64.612,0,0,0,12.1,27.854l1.318,1.718.032,30.053.048,30.053,9.851-21.753c5.432-11.944,9.915-21.8,10-21.866a3.5,3.5,0,0,1,1.414.514,68.066,68.066,0,0,0,15.781,5.394,53,53,0,0,0,12.615,1.108,56.905,56.905,0,0,0,7.392-.273,66.035,66.035,0,0,0,20.265-5.892,9.664,9.664,0,0,1,2.153-.851c.064.08,4.5,9.841,9.883,21.721,5.367,11.88,9.835,21.657,9.9,21.737.08.1.145-12.956.145-29.909v-30.069l1.478-1.959A64.391,64.391,0,0,0,129.5-959.736a64.262,64.262,0,0,0-21.213-47.536,63.52,63.52,0,0,0-34.712-15.974A98.383,98.383,0,0,0,60-1023.535Zm9.321,4.479a59.788,59.788,0,0,1,30.662,10.949,60.463,60.463,0,0,1,9.064,7.947l1.478,1.589L93.663-961.422,76.805-924.256H54.066L37.24-961.341C27.984-981.746,20.4-998.49,20.4-998.555c-.016-.064,1.27-1.413,2.828-2.986a57.427,57.427,0,0,1,16.665-11.816A58.643,58.643,0,0,1,69.317-1019.055ZM15.69-943.489l-.048,16.343-1.061-1.766a57.229,57.229,0,0,1-5.609-12.1,59.13,59.13,0,0,1,5.609-49.543l1.061-1.766.048,16.247C15.706-967.153,15.706-952.479,15.69-943.489Zm101.5-45.578a59.362,59.362,0,0,1,4.821,47.761,60.466,60.466,0,0,1-6.171,13.148l-.643,1.011v-65.179l.643,1.011C116.21-990.752,116.8-989.741,117.19-989.067Zm-6.7,64.842c-.032.032-6.492.032-14.367.016l-14.3-.048,14.319-31.578,14.319-31.578.048,31.562C110.521-938.5,110.521-924.256,110.489-924.224Zm-75.8-31.739c7.794,17.178,14.206,31.354,14.254,31.5.08.273-.675.289-14.238.289H20.383v-31.578c0-17.354.032-31.53.064-31.5C20.5-987.22,26.907-973.125,34.685-955.963Zm20.763,45.786c2.378,5.218,4.275,9.52,4.243,9.568a49.7,49.7,0,0,1-6.444-.947,56.1,56.1,0,0,1-14.222-4.977,56.449,56.449,0,0,1-15.347-10.933l-2.25-2.2H36.292l14.865-.016Zm19.22-9.359c-.016.064-1.993,4.447-4.387,9.713l-4.339,9.568h-.98l-4.291-9.44c-2.346-5.185-4.323-9.552-4.371-9.713-.112-.257.386-.273,9.16-.273C70.6-919.681,74.7-919.617,74.668-919.536Zm32.494,2.135a59.568,59.568,0,0,1-33.8,16.584,14.079,14.079,0,0,1-2.137.193c-.048-.048,1.848-4.351,4.21-9.568l4.307-9.488H94.611l14.881.016Zm-83,6.566a76.239,76.239,0,0,0,6.316,4.7,7.276,7.276,0,0,1,1.157.835c0,.08-8.582,19.072-10.944,24.226-.289.626-.305.257-.305-16.279v-16.921l1.173,1.108C22.2-912.553,23.372-911.509,24.159-910.835ZM110.5-888.921l-.048,8.461-5.641-12.426-5.625-12.426,2.121-1.445a64.781,64.781,0,0,0,7.312-5.763l1.832-1.654.048,8.412C110.521-901.138,110.521-893.561,110.5-888.921Z" transform="translate(387.5 829.487)"/><path class="b" d="M60-1023.535a63.951,63.951,0,0,0-46.057,25.783A65.066,65.066,0,0,0,2.3-970.54a49.09,49.09,0,0,0-.8,10.8,49.09,49.09,0,0,0,.8,10.8,64.612,64.612,0,0,0,12.1,27.854l1.318,1.718.032,30.053.048,30.053,9.851-21.753c5.432-11.944,9.915-21.8,10-21.866a3.5,3.5,0,0,1,1.414.514,68.066,68.066,0,0,0,15.781,5.394,53,53,0,0,0,12.615,1.108,56.905,56.905,0,0,0,7.392-.273,66.035,66.035,0,0,0,20.265-5.892,9.664,9.664,0,0,1,2.153-.851c.064.08,4.5,9.841,9.883,21.721,5.367,11.88,9.835,21.657,9.9,21.737.08.1.145-12.956.145-29.909v-30.069l1.478-1.959A64.391,64.391,0,0,0,129.5-959.736a64.262,64.262,0,0,0-21.213-47.536,63.52,63.52,0,0,0-34.712-15.974A98.383,98.383,0,0,0,60-1023.535Zm9.321,4.479a59.788,59.788,0,0,1,30.662,10.949,60.463,60.463,0,0,1,9.064,7.947l1.478,1.589L93.663-961.422,76.805-924.256H54.066L37.24-961.341C27.984-981.746,20.4-998.49,20.4-998.555c-.016-.064,1.27-1.413,2.828-2.986a57.427,57.427,0,0,1,16.665-11.816A58.643,58.643,0,0,1,69.317-1019.055ZM15.69-943.489l-.048,16.343-1.061-1.766a57.229,57.229,0,0,1-5.609-12.1,59.13,59.13,0,0,1,5.609-49.543l1.061-1.766.048,16.247C15.706-967.153,15.706-952.479,15.69-943.489Zm101.5-45.578a59.362,59.362,0,0,1,4.821,47.761,60.466,60.466,0,0,1-6.171,13.148l-.643,1.011v-65.179l.643,1.011C116.21-990.752,116.8-989.741,117.19-989.067Zm-6.7,64.842c-.032.032-6.492.032-14.367.016l-14.3-.048,14.319-31.578,14.319-31.578.048,31.562C110.521-938.5,110.521-924.256,110.489-924.224Zm-75.8-31.739c7.794,17.178,14.206,31.354,14.254,31.5.08.273-.675.289-14.238.289H20.383v-31.578c0-17.354.032-31.53.064-31.5C20.5-987.22,26.907-973.125,34.685-955.963Zm20.763,45.786c2.378,5.218,4.275,9.52,4.243,9.568a49.7,49.7,0,0,1-6.444-.947,56.1,56.1,0,0,1-14.222-4.977,56.449,56.449,0,0,1-15.347-10.933l-2.25-2.2H36.292l14.865-.016Zm19.22-9.359c-.016.064-1.993,4.447-4.387,9.713l-4.339,9.568h-.98l-4.291-9.44c-2.346-5.185-4.323-9.552-4.371-9.713-.112-.257.386-.273,9.16-.273C70.6-919.681,74.7-919.617,74.668-919.536Zm32.494,2.135a59.568,59.568,0,0,1-33.8,16.584,14.079,14.079,0,0,1-2.137.193c-.048-.048,1.848-4.351,4.21-9.568l4.307-9.488H94.611l14.881.016Zm-83,6.566a76.239,76.239,0,0,0,6.316,4.7,7.276,7.276,0,0,1,1.157.835c0,.08-8.582,19.072-10.944,24.226-.289.626-.305.257-.305-16.279v-16.921l1.173,1.108C22.2-912.553,23.372-911.509,24.159-910.835ZM110.5-888.921l-.048,8.461-5.641-12.426-5.625-12.426,2.121-1.445a64.781,64.781,0,0,0,7.312-5.763l1.832-1.654.048,8.412C110.521-901.138,110.521-893.561,110.5-888.921Z" transform="translate(381.5 829.487)"/><path class="c" d="M59.082-1023.536a62.953,62.953,0,0,0-45.338,25.38A64.049,64.049,0,0,0,2.291-971.37,48.322,48.322,0,0,0,1.5-960.734,48.322,48.322,0,0,0,2.291-950.1,63.6,63.6,0,0,0,14.2-922.68l1.3,1.691.032,29.584.047,29.584,9.7-21.413c5.347-11.758,9.76-21.461,9.84-21.524a3.44,3.44,0,0,1,1.392.506,67,67,0,0,0,15.534,5.31,52.171,52.171,0,0,0,12.418,1.09,56.038,56.038,0,0,0,7.277-.269,65,65,0,0,0,19.948-5.8,9.509,9.509,0,0,1,2.12-.837c.063.079,4.429,9.687,9.729,21.382,5.284,11.694,9.681,21.319,9.745,21.4.079.095.142-12.753.142-29.441v-29.6l1.455-1.928A63.385,63.385,0,0,0,127.5-960.734a63.258,63.258,0,0,0-20.881-46.793,62.529,62.529,0,0,0-34.169-15.724A96.89,96.89,0,0,0,59.082-1023.536Zm9.175,4.409A58.857,58.857,0,0,1,98.44-1008.35a59.533,59.533,0,0,1,8.922,7.823l1.455,1.564L92.223-962.394,75.629-925.809H53.245L36.682-962.315C27.57-982.4,20.1-998.883,20.1-998.947c-.016-.063,1.25-1.391,2.784-2.939a56.529,56.529,0,0,1,16.4-11.631A57.729,57.729,0,0,1,68.257-1019.127ZM15.468-944.742l-.047,16.088-1.044-1.738a56.336,56.336,0,0,1-5.521-11.916,58.206,58.206,0,0,1,5.521-48.769l1.044-1.738.047,15.993C15.484-968.035,15.484-953.591,15.468-944.742Zm99.914-44.865a58.434,58.434,0,0,1,4.746,47.015,59.522,59.522,0,0,1-6.075,12.943l-.633,1v-64.161l.633,1C114.417-991.266,115-990.271,115.382-989.607Zm-6.6,63.829c-.032.032-6.391.032-14.142.016l-14.079-.047,14.095-31.085,14.095-31.085.047,31.069C108.818-939.827,108.818-925.809,108.786-925.778ZM34.167-957.021c7.672,16.91,13.984,30.864,14.032,31.006.079.269-.664.285-14.016.285H20.088v-31.085c0-17.083.032-31.037.063-31.006C20.2-987.789,26.51-973.914,34.167-957.021ZM54.605-911.95c2.341,5.136,4.208,9.371,4.176,9.419a48.926,48.926,0,0,1-6.344-.932,55.217,55.217,0,0,1-14-4.9,55.567,55.567,0,0,1-15.107-10.762l-2.215-2.165H35.749l14.633-.016Zm18.92-9.213c-.016.063-1.962,4.378-4.319,9.561l-4.271,9.419H63.97l-4.224-9.292c-2.31-5.1-4.255-9.4-4.3-9.561-.111-.253.38-.269,9.017-.269C69.523-921.305,73.556-921.242,73.525-921.163Zm31.986,2.1a58.636,58.636,0,0,1-33.268,16.325,13.88,13.88,0,0,1-2.1.19c-.047-.047,1.819-4.283,4.145-9.419l4.24-9.34H93.156l14.649.016ZM23.805-912.6a75.06,75.06,0,0,0,6.217,4.63,7.162,7.162,0,0,1,1.139.822c0,.079-8.447,18.774-10.773,23.847-.285.616-.3.253-.3-16.024V-915.98l1.155,1.09C21.875-914.289,23.03-913.262,23.805-912.6Zm85,21.571-.047,8.328L103.2-894.93l-5.537-12.232,2.088-1.422a63.779,63.779,0,0,0,7.2-5.673l1.8-1.628.047,8.281C108.818-903.053,108.818-895.594,108.8-891.026Z" transform="translate(385.5 830.487)"/></g></svg>